<svg width="40" height="36" viewBox="0 0 40 36" fill="none" xmlns="http://www.w3.org/2000/svg">
<path d="M26.73 0L33.154 11.4014H40V15.5012H37.666L36.152 34.1203C36.1104 34.6325 35.8825 35.11 35.5136 35.4582C35.1446 35.8063 34.6615 35.9997 34.16 36H5.84C5.33815 36.0002 4.85455 35.8071 4.48518 35.4589C4.1158 35.1107 3.88765 34.6329 3.846 34.1203L2.332 15.5012H0V11.4014H6.844L13.268 0L16.732 2.04988L11.464 11.4014H28.534L23.268 2.04988L26.73 0ZM22 19.601H18V27.8005H22V19.601ZM14 19.601H10V27.8005H14V19.601ZM30 19.601H26V27.8005H30V19.601Z" fill="white"/>
</svg>
