<svg width="39" height="39" viewBox="0 0 39 39" fill="none" xmlns="http://www.w3.org/2000/svg">
<path d="M27.5769 7.38462V20.8462M27.5769 7.38462L23.5385 2M27.5769 7.38462L31.6154 2M2 30.2692L8.58 35.7508C9.54764 36.5564 10.767 36.9975 12.0262 36.9973H29.37C30.6085 36.9973 31.6154 35.9931 31.6154 34.7546C31.6154 32.2777 29.6069 30.2665 27.1273 30.2665H15.0685M37 7.38462H18.1538V20.8462H37V7.38462Z" stroke="white" stroke-width="2.5" stroke-linecap="round" stroke-linejoin="round"/>
<path d="M10.0769 27.577L12.0962 29.5962C12.6317 30.1317 13.358 30.4326 14.1154 30.4326C14.8727 30.4326 15.5991 30.1317 16.1346 29.5962C16.6701 29.0607 16.971 28.3343 16.971 27.577C16.971 26.8196 16.6701 26.0933 16.1346 25.5577L13.0008 22.4212C12.5 21.921 11.9056 21.5244 11.2514 21.2542C10.5973 20.9839 9.89624 20.8453 9.18846 20.8462H2" stroke="white" stroke-width="2.5" stroke-linecap="round" stroke-linejoin="round"/>
</svg>
