<svg width="22" height="22" viewBox="0 0 22 22" fill="none" xmlns="http://www.w3.org/2000/svg">
<path d="M9.05761 21.002C10.1314 21.002 11.002 20.1315 11.002 19.0576C11.002 17.9838 10.1314 17.1133 9.05761 17.1133C7.98377 17.1133 7.11325 17.9838 7.11325 19.0576C7.11325 20.1315 7.98377 21.002 9.05761 21.002Z" stroke="white" stroke-width="1.5" stroke-linecap="round" stroke-linejoin="round"/>
<path d="M17.5288 21.002C18.6027 21.002 19.4732 20.1315 19.4732 19.0576C19.4732 17.9838 18.6027 17.1133 17.5288 17.1133C16.455 17.1133 15.5845 17.9838 15.5845 19.0576C15.5845 20.1315 16.455 21.002 17.5288 21.002Z" stroke="white" stroke-width="1.5" stroke-linecap="round" stroke-linejoin="round"/>
<path d="M4.55037 3.63282L6.84793 10.9073C7.20114 12.0252 7.37717 12.5842 7.71666 12.998C8.01386 13.3637 8.40136 13.6461 8.83916 13.821C9.33639 14.0187 9.92164 14.0187 11.0944 14.0187H15.501C16.6737 14.0187 17.259 14.0187 17.7551 13.821C18.194 13.6461 18.5804 13.3637 18.8787 12.998C19.2171 12.5842 19.3931 12.0252 19.7474 10.9073L20.215 9.42588L20.4893 8.55029L20.8677 7.35007C21.0027 6.922 21.035 6.46813 20.9619 6.02525C20.8888 5.58238 20.7124 5.16294 20.447 4.80093C20.1817 4.43892 19.8347 4.14452 19.4344 3.94158C19.034 3.73863 18.5914 3.63286 18.1426 3.63282H4.55037ZM4.55037 3.63282L4.53779 3.59052C4.48953 3.42885 4.43616 3.26874 4.37776 3.11044C4.14635 2.52466 3.75392 2.01632 3.24581 1.64414C2.73771 1.27196 2.13467 1.05114 1.50638 1.00719C1.38864 0.998047 1.25948 0.998047 1 0.998047" stroke="white" stroke-width="1.5" stroke-linecap="round" stroke-linejoin="round"/>
</svg>
