<svg width="35" height="32" viewBox="0 0 35 32" fill="none" xmlns="http://www.w3.org/2000/svg">
<path d="M10.9375 15.5402C11.5177 15.5402 12.0741 15.3063 12.4843 14.89C12.8945 14.4736 13.125 13.909 13.125 13.3202C13.125 12.7314 12.8945 12.1667 12.4843 11.7503C12.0741 11.334 11.5177 11.1001 10.9375 11.1001C10.3573 11.1001 9.80094 11.334 9.3907 11.7503C8.98047 12.1667 8.75 12.7314 8.75 13.3202C8.75 13.909 8.98047 14.4736 9.3907 14.89C9.80094 15.3063 10.3573 15.5402 10.9375 15.5402ZM19.6875 13.3202C19.6875 13.909 19.457 14.4736 19.0468 14.89C18.6366 15.3063 18.0802 15.5402 17.5 15.5402C16.9198 15.5402 16.3634 15.3063 15.9532 14.89C15.543 14.4736 15.3125 13.909 15.3125 13.3202C15.3125 12.7314 15.543 12.1667 15.9532 11.7503C16.3634 11.334 16.9198 11.1001 17.5 11.1001C18.0802 11.1001 18.6366 11.334 19.0468 11.7503C19.457 12.1667 19.6875 12.7314 19.6875 13.3202ZM24.0625 15.5402C24.6427 15.5402 25.1991 15.3063 25.6093 14.89C26.0195 14.4736 26.25 13.909 26.25 13.3202C26.25 12.7314 26.0195 12.1667 25.6093 11.7503C25.1991 11.334 24.6427 11.1001 24.0625 11.1001C23.4823 11.1001 22.9259 11.334 22.5157 11.7503C22.1055 12.1667 21.875 12.7314 21.875 13.3202C21.875 13.909 22.1055 14.4736 22.5157 14.89C22.9259 15.3063 23.4823 15.5402 24.0625 15.5402Z" fill="white"/>
<path d="M35 0H0V26.6408H7.84437L13.125 32L18.4056 26.6408H35V0ZM4.375 22.2006V4.44013H30.625V22.2006H16.5944L13.125 25.7217L9.65563 22.2006H4.375Z" fill="white"/>
</svg>
