<svg width="19" height="22" viewBox="0 0 19 22" fill="none" xmlns="http://www.w3.org/2000/svg">
<path d="M9.47643 21.4354L9.46513 21.4374L9.39219 21.473L9.37164 21.477L9.35726 21.473L9.28432 21.4374C9.27337 21.4341 9.26515 21.4357 9.25967 21.4425L9.25556 21.4527L9.23809 21.887L9.24323 21.9073L9.2535 21.9205L9.36034 21.9956L9.37575 21.9997L9.38808 21.9956L9.49492 21.9205L9.50725 21.9043L9.51136 21.887L9.49389 21.4537C9.49115 21.4429 9.48533 21.4368 9.47643 21.4354ZM9.74866 21.3207L9.73531 21.3228L9.54526 21.4171L9.53499 21.4273L9.5319 21.4385L9.55039 21.8748L9.55553 21.887L9.56375 21.8941L9.77024 21.9885C9.78325 21.9919 9.79318 21.9892 9.80003 21.9804L9.80414 21.9662L9.76921 21.3431C9.76579 21.3309 9.75894 21.3234 9.74866 21.3207ZM9.01414 21.3228C9.00961 21.3201 9.0042 21.3192 8.99904 21.3203C8.99387 21.3214 8.98934 21.3245 8.9864 21.3289L8.98024 21.3431L8.94531 21.9662C8.946 21.9784 8.95182 21.9865 8.96278 21.9905L8.97819 21.9885L9.18467 21.8941L9.19495 21.886L9.19906 21.8748L9.21652 21.4385L9.21344 21.4263L9.20317 21.4161L9.01414 21.3228Z" fill="#6382A1"/>
<path d="M13.0124 0.891999C13.5656 0.345395 14.3085 0.0270937 15.0904 0.00165144C15.8724 -0.0237908 16.6349 0.24553 17.2233 0.754993L17.3712 0.891999L18.0975 1.6095C18.6506 2.15592 18.9726 2.88962 18.9983 3.66189C19.0241 4.43415 18.7516 5.18719 18.2362 5.76838L18.0975 5.91452L6.57939 17.2941C6.41654 17.455 6.21926 17.5777 6.00205 17.6534L5.83563 17.7011L1.26001 18.7443C1.09969 18.7812 0.932752 18.7794 0.773263 18.7392C0.613774 18.699 0.4664 18.6215 0.343554 18.5133C0.220707 18.4051 0.125984 18.2692 0.0673615 18.1173C0.00873897 17.9654 -0.0120668 17.8017 0.00669665 17.6402L0.0272427 17.5255L1.08228 13.0043C1.13441 12.7826 1.23621 12.5752 1.3802 12.3974L1.49423 12.2706L13.0124 0.891999ZM12.2861 4.47952L3.0506 13.6031L2.39724 16.4021L5.23054 15.7556L14.466 6.63203L12.2861 4.47952ZM15.9186 2.32701C15.7417 2.15227 15.5064 2.0473 15.2567 2.0318C15.0071 2.01629 14.7602 2.0913 14.5626 2.24277L14.466 2.32701L13.7387 3.04451L15.9186 5.19702L16.6449 4.47952C16.8218 4.30477 16.9281 4.07226 16.9438 3.82563C16.9595 3.57899 16.8835 3.33517 16.7302 3.13991L16.6449 3.04451L15.9186 2.32701Z" fill="#6382A1"/>
</svg>
