<svg width="30" height="19" viewBox="0 0 30 19" fill="none" xmlns="http://www.w3.org/2000/svg">
<path d="M14.9972 19C11.4506 19 8.56833 16.1606 8.56833 12.6667C8.56833 9.17278 11.4506 6.33333 14.9972 6.33333C18.5438 6.33333 21.426 9.17278 21.426 12.6667C21.426 16.1606 18.5438 19 14.9972 19ZM14.9972 7.38889C12.0399 7.38889 9.63981 9.75333 9.63981 12.6667C9.63981 15.58 12.0399 17.9444 14.9972 17.9444C17.9544 17.9444 20.3545 15.58 20.3545 12.6667C20.3545 9.75333 17.9544 7.38889 14.9972 7.38889ZM29.4621 12.6667C29.3406 12.6653 29.223 12.6241 29.1279 12.5496C29.0328 12.475 28.9656 12.3714 28.937 12.255C28.8299 11.8011 26.2048 1.05556 14.9972 1.05556C3.78956 1.05556 1.16445 11.8011 1.0573 12.255C1.0196 12.3854 0.932664 12.4967 0.814327 12.566C0.695989 12.6353 0.555222 12.6574 0.420902 12.6276C0.286582 12.5979 0.168892 12.5187 0.0919754 12.4063C0.0150584 12.2938 -0.0152543 12.1566 0.00725561 12.0228C0.0393998 11.9067 2.92166 0 14.9972 0C27.0727 0 29.955 11.8961 29.9871 12.0228C30.0514 12.3078 29.8692 12.5928 29.5799 12.6561C29.5371 12.6561 29.4942 12.6667 29.4621 12.6667Z" fill="black"/>
</svg>
