<svg width="30" height="41" viewBox="0 0 30 41" fill="none" xmlns="http://www.w3.org/2000/svg">
<path d="M25.415 23.3222C24.105 25.9772 22.33 28.6222 20.515 30.9972C18.7914 33.2347 16.9505 35.3794 15 37.4222C13.0495 35.3794 11.2086 33.2347 9.485 30.9972C7.67 28.6222 5.895 25.9772 4.585 23.3222C3.26 20.6397 2.5 18.1272 2.5 15.9722C2.5 12.657 3.81696 9.47754 6.16117 7.13333C8.50537 4.78913 11.6848 3.47217 15 3.47217C18.3152 3.47217 21.4946 4.78913 23.8388 7.13333C26.183 9.47754 27.5 12.657 27.5 15.9722C27.5 18.1272 26.7375 20.6397 25.415 23.3222ZM15 40.9722C15 40.9722 30 26.7572 30 15.9722C30 11.9939 28.4196 8.17861 25.6066 5.36557C22.7936 2.55252 18.9782 0.972168 15 0.972168C11.0218 0.972168 7.20644 2.55252 4.3934 5.36557C1.58035 8.17861 5.92805e-08 11.9939 0 15.9722C0 26.7572 15 40.9722 15 40.9722Z" fill="black"/>
<path d="M15 20.9722C13.6739 20.9722 12.4021 20.4454 11.4645 19.5077C10.5268 18.57 10 17.2983 10 15.9722C10 14.6461 10.5268 13.3743 11.4645 12.4366C12.4021 11.499 13.6739 10.9722 15 10.9722C16.3261 10.9722 17.5979 11.499 18.5355 12.4366C19.4732 13.3743 20 14.6461 20 15.9722C20 17.2983 19.4732 18.57 18.5355 19.5077C17.5979 20.4454 16.3261 20.9722 15 20.9722ZM15 23.4722C16.9891 23.4722 18.8968 22.682 20.3033 21.2755C21.7098 19.8689 22.5 17.9613 22.5 15.9722C22.5 13.983 21.7098 12.0754 20.3033 10.6689C18.8968 9.26234 16.9891 8.47217 15 8.47217C13.0109 8.47217 11.1032 9.26234 9.6967 10.6689C8.29018 12.0754 7.5 13.983 7.5 15.9722C7.5 17.9613 8.29018 19.8689 9.6967 21.2755C11.1032 22.682 13.0109 23.4722 15 23.4722Z" fill="black"/>
</svg>
