<svg width="25" height="25" viewBox="0 0 25 25" fill="none" xmlns="http://www.w3.org/2000/svg">
<path d="M8.58416 0.684808C6.0052 1.56156 3.7811 3.22566 2.23856 5.43268C0.696018 7.63971 -0.0836632 10.2733 0.0140391 12.9467C0.111741 15.62 1.08168 18.1923 2.78138 20.2855C4.48108 22.3787 6.82096 23.8826 9.45732 24.5763C11.5947 25.1168 13.834 25.1405 15.9828 24.6455C17.9294 24.217 19.729 23.3005 21.2056 21.9856C22.7423 20.5753 23.8578 18.7813 24.432 16.7963C25.0562 14.6377 25.1672 12.3676 24.7567 10.1604H12.7543V15.0395H19.7053C19.5664 15.8177 19.2687 16.5604 18.83 17.2232C18.3913 17.886 17.8208 18.4553 17.1524 18.8969C16.3036 19.4471 15.3468 19.8173 14.3433 19.9838C13.337 20.1672 12.3048 20.1672 11.2984 19.9838C10.2784 19.7771 9.31354 19.3646 8.46519 18.7724C7.10232 17.827 6.07899 16.4839 5.54124 14.9347C4.99439 13.3566 4.99439 11.6457 5.54124 10.0675C5.92402 8.96131 6.55682 7.95411 7.3924 7.12109C8.34862 6.15031 9.55922 5.45639 10.8914 5.11546C12.2235 4.77454 13.6258 4.79978 14.9443 5.18843C15.9742 5.49827 16.9161 6.03963 17.6948 6.76934C18.4786 6.00523 19.261 5.23915 20.042 4.47109C20.4453 4.05808 20.8849 3.66483 21.2822 3.24193C20.0936 2.15797 18.6984 1.31452 17.1766 0.759901C14.4053 -0.226213 11.373 -0.252713 8.58416 0.684808Z" fill="white"/>
<path d="M8.58506 0.68528C11.3736 -0.252879 14.4059 -0.227075 17.1774 0.758397C18.6995 1.31678 20.0941 2.1643 21.2811 3.25228C20.8778 3.67518 20.4523 4.07041 20.0409 4.48144C19.2585 5.24687 18.4768 6.00966 17.6957 6.76981C16.917 6.0401 15.9751 5.49874 14.9452 5.1889C13.6271 4.79889 12.2249 4.77219 10.8924 5.11172C9.55988 5.45125 8.34854 6.14389 7.39127 7.11366C6.5557 7.94667 5.9229 8.95387 5.54011 10.0601L1.35986 6.88838C2.85614 3.98061 5.44684 1.75639 8.58506 0.68528Z" fill="#E33629"/>
<path d="M0.250043 10.0307C0.474726 8.9395 0.847747 7.88272 1.35913 6.88867L5.53938 10.0683C4.99252 11.6464 4.99252 13.3574 5.53938 14.9355C4.14663 15.9895 2.75322 17.0487 1.35913 18.1131C0.0789423 15.6159 -0.311492 12.7707 0.250043 10.0307Z" fill="#F8BD00"/>
<path d="M12.7548 10.1587H24.7571C25.1677 12.3659 25.0566 14.636 24.4325 16.7946C23.8582 18.7796 22.7428 20.5736 21.206 21.9839C19.857 20.9524 18.5019 19.9287 17.1528 18.8972C17.8217 18.4551 18.3925 17.8852 18.8312 17.2217C19.2699 16.5582 19.5673 15.8147 19.7057 15.0358H12.7548C12.7528 13.4114 12.7548 11.7851 12.7548 10.1587Z" fill="#587DBD"/>
<path d="M1.35742 18.1132C2.75151 17.0592 4.14492 16 5.53767 14.9355C6.0765 16.4852 7.10129 17.8284 8.46566 18.7732C9.31664 19.3626 10.2836 19.7718 11.3049 19.9747C12.3113 20.1581 13.3435 20.1581 14.3499 19.9747C15.3533 19.8083 16.3101 19.438 17.1589 18.8878C18.5079 19.9194 19.863 20.943 21.2121 21.9746C19.7358 23.2901 17.9361 24.2074 15.9893 24.6364C13.8405 25.1315 11.6012 25.1077 9.46383 24.5672C7.77339 24.1249 6.1944 23.3452 4.82584 22.2769C3.37729 21.1499 2.19419 19.7296 1.35742 18.1132Z" fill="#319F43"/>
</svg>
