<?xml version="1.0" standalone="no"?>
<!DOCTYPE svg PUBLIC "-//W3C//DTD SVG 20010904//EN"
 "http://www.w3.org/TR/2001/REC-SVG-20010904/DTD/svg10.dtd">
<svg version="1.0" xmlns="http://www.w3.org/2000/svg"
 width="626.000000pt" height="351.000000pt" viewBox="0 0 626.000000 351.000000"
 preserveAspectRatio="xMidYMid meet">

<g transform="translate(0.000000,351.000000) scale(0.100000,-0.100000)"
fill="#000000" stroke="none">
<path d="M0 1755 l0 -1755 3130 0 3130 0 0 1755 0 1755 -776 0 -775 0 2 -52
c1 -29 6 -55 10 -58 4 -3 2 -13 -5 -23 -11 -14 -13 -6 -15 55 -2 95 -11 102
-11 8 0 -40 -3 -70 -7 -67 -3 4 -5 36 -4 72 l2 65 -40 -2 c-23 -1 -41 -5 -41
-10 0 -5 -4 -7 -8 -4 -4 2 -14 0 -22 -5 -11 -6 -5 -8 17 -4 39 6 51 -11 48
-72 -1 -23 2 -40 6 -37 4 2 10 0 13 -5 4 -5 25 -12 49 -16 23 -4 48 -12 56
-19 11 -8 13 -8 7 2 -9 15 114 16 259 1 55 -6 132 -10 171 -9 39 0 89 -6 111
-14 22 -8 85 -17 139 -21 54 -4 101 -9 103 -11 2 -2 -48 -4 -112 -4 -89 0
-119 -3 -131 -15 -12 -12 -55 -15 -253 -15 -187 -1 -243 -4 -263 -15 -14 -8
-33 -14 -44 -15 -20 0 -56 35 -56 55 0 14 -29 75 -36 75 -3 0 -10 -13 -15 -29
-7 -19 -15 -28 -25 -24 -10 4 -13 -2 -10 -26 2 -17 0 -34 -5 -37 -4 -2 -6 -12
-3 -22 5 -14 4 -15 -5 -2 -10 13 -13 12 -29 -6 -9 -12 -25 -20 -35 -19 -11 2
-16 0 -12 -3 4 -4 11 -8 16 -8 5 -1 12 -2 16 -3 4 0 -2 -8 -13 -17 -18 -15
-18 -15 4 -10 23 4 23 4 6 -15 -18 -20 -29 -26 -20 -10 3 5 0 11 -7 14 -18 7
-41 -31 -29 -46 5 -7 6 -21 1 -32 -8 -21 -9 -18 -14 45 -1 22 3 39 13 46 12 9
11 11 -8 9 -22 -1 -40 -35 -19 -35 5 0 2 -14 -7 -31 -9 -17 -13 -41 -10 -54 3
-13 2 -27 -4 -30 -5 -3 -7 0 -4 8 3 8 -1 14 -10 14 -8 0 -13 -4 -11 -8 3 -3
-2 -13 -11 -20 -8 -7 -14 -8 -12 -3 2 5 -2 9 -7 9 -6 0 -9 -5 -9 -11 2 -14
-48 -5 -58 10 -6 8 -11 7 -17 -3 -5 -7 -13 -11 -19 -7 -6 3 -14 1 -18 -6 -5
-8 -10 -4 -16 11 -4 12 -13 19 -18 16 -8 -5 -7 -12 2 -23 11 -14 11 -14 -6 -5
-21 12 -59 6 -50 -8 3 -5 -2 -6 -10 -3 -9 3 -16 10 -16 15 0 4 -7 5 -17 2 -12
-5 -14 -3 -9 8 5 10 4 10 -6 -1 -8 -10 -28 -15 -50 -14 -21 1 -38 -3 -38 -8 0
-6 7 -8 15 -4 8 3 15 1 15 -5 0 -6 5 -7 12 -3 7 4 8 3 4 -4 -9 -15 -1 -15 25
-2 31 17 22 4 -14 -20 -28 -18 -29 -20 -7 -14 14 3 31 12 39 18 11 8 13 8 7
-1 -5 -9 2 -13 23 -13 18 0 31 5 31 13 0 9 2 9 8 0 5 -8 48 -12 132 -14 69 0
128 -3 132 -5 13 -8 -4 -34 -23 -34 -10 0 -19 -7 -19 -15 0 -11 11 -15 36 -15
19 0 33 -4 30 -9 -4 -5 -71 -10 -151 -10 -144 -2 -145 -1 -133 19 11 17 24 20
88 22 l75 2 -70 3 c-87 5 -115 -2 -115 -26 0 -18 -11 -20 -132 -24 -73 -3
-158 -6 -190 -6 -31 0 -59 -5 -63 -11 -11 -17 -44 -12 -41 8 3 14 11 16 53 14
28 -2 74 4 104 12 66 20 65 19 62 28 -2 4 4 5 12 2 8 -4 15 -10 15 -15 0 -11
68 -11 95 1 19 8 19 9 -3 9 -13 1 -20 5 -17 11 3 6 -3 10 -14 10 -25 0 -26 4
-5 35 15 23 15 25 0 25 -10 0 -15 -4 -12 -8 3 -5 -5 -7 -17 -6 -12 1 -26 3
-30 3 -5 1 -5 7 -1 14 5 7 1 6 -10 -3 -14 -11 -45 -14 -127 -13 -60 0 -109 -3
-109 -8 0 -17 -29 -9 -40 11 -6 11 -14 18 -19 16 -4 -3 -6 8 -5 25 1 16 -3 32
-9 36 -6 4 -8 -2 -4 -16 5 -21 4 -21 -11 -8 -9 8 -23 12 -31 9 -8 -3 -11 0 -7
7 4 6 1 11 -7 11 -22 0 -28 -12 -14 -29 11 -14 10 -14 -6 -2 -12 9 -14 17 -7
26 5 6 7 14 5 17 -3 3 5 4 19 3 18 -2 23 1 19 12 -4 10 -8 11 -13 3 -5 -8 -12
-7 -24 5 -22 22 -16 39 15 43 100 12 218 19 359 20 142 2 228 -3 420 -22 19
-2 38 2 42 8 6 8 8 7 8 -1 0 -7 4 -13 8 -13 5 0 9 15 9 34 0 19 -3 34 -6 34
-3 -1 -18 5 -33 12 -22 10 -25 16 -17 27 8 8 8 13 1 13 -6 0 -12 -5 -14 -11
-2 -7 -65 -10 -193 -9 -327 2 -427 7 -437 22 -8 10 -11 10 -15 1 -7 -19 -53
-16 -53 2 0 8 -4 15 -10 15 -5 0 -10 -7 -10 -16 0 -11 -6 -14 -22 -8 -13 4
-26 11 -29 17 -4 5 -12 6 -18 3 -6 -4 -11 -2 -11 3 0 6 9 11 21 11 17 0 18 2
7 13 -7 8 -20 16 -28 20 -20 8 661 2 731 -7 48 -6 58 -4 63 10 4 9 5 19 3 21
-2 2 -161 5 -353 8 -192 3 -441 8 -554 11 -113 4 -242 7 -287 8 -45 1 -86 6
-90 11 -5 4 -2 5 5 1 6 -4 12 -3 12 3 0 5 -17 12 -37 14 l-38 4 38 1 c20 1 37
6 37 10 0 11 1 11 194 11 128 1 163 -2 176 -14 9 -8 22 -15 28 -15 7 0 12 -4
12 -10 0 -6 39 -9 103 -8 l102 2 -85 3 c-61 3 -87 8 -93 18 -4 8 -18 15 -30
16 -22 1 -22 1 1 7 28 8 29 19 5 39 -10 8 -12 11 -5 8 8 -4 23 4 37 21 16 19
29 25 42 20 17 -6 17 -6 0 8 -18 14 -18 14 0 19 10 3 -208 5 -484 6 l-503 1 0
-40 c0 -37 -2 -39 -22 -31 -16 6 -24 18 -26 40 l-3 32 -420 -1 c-230 -1 -421
-5 -423 -9 -3 -4 13 -7 34 -6 22 1 40 -2 40 -7 0 -4 9 -8 21 -8 13 0 18 -4 13
-12 -6 -10 -5 -10 8 -1 17 15 29 7 21 -13 -3 -8 -1 -14 5 -14 6 0 12 6 15 13
2 6 4 -2 4 -20 0 -24 -4 -30 -16 -26 -14 4 -14 3 -1 -5 8 -6 18 -8 24 -5 5 4
7 -1 3 -10 -3 -10 -2 -17 3 -17 6 0 10 7 10 15 0 8 8 15 18 15 13 0 14 -2 3
-9 -7 -5 -10 -14 -6 -20 5 -9 11 -9 23 1 12 9 11 5 -2 -10 -11 -12 -26 -20
-33 -17 -8 2 -11 0 -8 -5 3 -6 12 -10 19 -10 8 0 19 -6 25 -14 9 -11 8 -18 -4
-30 -18 -17 -30 -21 -21 -7 9 13 -19 7 -38 -8 -12 -10 -13 -17 -6 -26 8 -9 8
-15 0 -20 -5 -3 -10 -1 -10 4 0 6 -5 11 -11 11 -6 0 -2 -12 8 -27 20 -30 21
-37 8 -66 -7 -17 -8 -17 -28 0 -20 17 -20 17 -13 -1 5 -15 4 -16 -7 -8 -8 7
-18 7 -27 2 -24 -15 -37 -11 -16 5 11 8 16 18 12 22 -4 4 -12 0 -17 -10 -6 -9
-14 -15 -18 -12 -5 2 -15 -3 -22 -13 -7 -9 -10 -14 -5 -10 4 4 18 3 30 -1 14
-6 25 -4 35 6 12 14 15 13 23 -1 6 -11 16 -15 28 -11 10 3 21 2 23 -3 3 -4
-26 -8 -64 -7 -38 0 -69 -2 -69 -5 0 -6 -66 -4 -127 3 -18 2 -33 0 -33 -5 0
-4 -3 -8 -7 -8 -9 0 -11 23 -12 154 -1 110 -13 106 -18 -6 -2 -57 -8 -87 -19
-99 -9 -10 -14 -25 -11 -32 4 -12 -7 -14 -61 -13 -37 1 -73 -3 -81 -8 -9 -7
-12 -7 -9 -1 3 6 -5 10 -18 10 -13 0 -24 -6 -24 -12 0 -10 35 -12 153 -8 83 3
243 7 354 10 l201 5 -7 -28 c-4 -15 -15 -28 -24 -28 -13 -2 -14 -1 -2 3 37 11
9 23 -55 23 -81 0 -97 -19 -17 -22 70 -2 -107 -15 -226 -17 -69 -1 -89 2 -93
14 -4 10 -20 15 -53 15 -54 0 -95 -19 -46 -21 17 -1 42 0 58 1 35 2 37 -26 2
-32 -14 -3 -25 -1 -25 4 0 14 -463 3 -468 -11 -2 -6 -8 -8 -14 -5 -5 4 -4 -4
2 -17 11 -20 14 -21 25 -6 12 17 109 37 178 37 45 0 42 -15 -5 -24 -17 -3 -41
-14 -52 -24 -18 -16 -19 -16 -13 0 10 29 -22 9 -39 -23 -9 -19 -22 -29 -37
-29 -22 0 -22 0 2 13 38 19 38 37 -1 37 -21 0 -37 -6 -45 -18 -6 -11 -35 -24
-69 -31 -33 -8 -63 -15 -69 -17 -6 -3 -10 16 -10 43 l0 48 45 6 c33 4 37 6 15
8 -23 1 -27 3 -15 11 11 7 3 10 -30 11 -31 1 -38 3 -23 7 19 6 20 9 9 24 -7
10 -16 15 -19 11 -4 -3 -7 -2 -7 3 0 5 20 9 44 9 24 0 39 -3 33 -7 -23 -14 4
-21 45 -11 25 5 42 14 40 21 -2 10 3 10 18 2 11 -6 20 -7 20 -2 0 5 12 8 27 6
15 -1 31 3 35 9 5 9 8 8 8 -3 0 -13 1 -13 10 0 9 13 11 13 20 0 5 -8 10 -10
10 -4 0 6 13 9 32 6 26 -4 30 -2 24 13 -5 14 -2 16 18 11 32 -8 53 16 30 35
-15 12 -16 11 -10 -11 6 -21 5 -22 -4 -7 -17 26 12 67 48 69 73 4 121 25 129
56 4 16 2 27 -5 30 -7 2 -12 10 -12 18 0 8 -4 14 -10 14 -5 0 -10 9 -10 20 0
16 -7 20 -30 20 -16 0 -30 -4 -30 -10 0 -5 -22 -10 -50 -10 -27 0 -50 5 -50
10 0 6 21 10 48 10 32 0 42 3 32 9 -8 6 -19 7 -25 4 -5 -3 -1 3 10 14 11 10
29 22 40 27 19 7 19 8 3 20 -19 14 -23 32 -9 40 5 3 8 -2 7 -10 0 -9 7 -18 17
-20 15 -2 16 0 6 12 -10 12 -9 17 1 27 10 9 11 9 6 0 -4 -8 -1 -13 8 -13 9 0
16 4 16 10 0 5 7 7 15 4 22 -9 18 9 -4 23 -15 10 -191 13 -730 13 l-711 0 0
-1755z m4860 1675 c0 -5 -4 -10 -10 -10 -5 0 -10 5 -10 10 0 6 5 10 10 10 6 0
10 -4 10 -10z m-200 -31 c0 -5 -4 -9 -8 -9 -5 0 -9 7 -9 15 0 8 4 12 9 9 4 -3
8 -9 8 -15z m-3440 3 c0 -4 -9 -8 -20 -9 -11 -1 -20 2 -20 8 0 5 9 9 20 9 11
0 20 -4 20 -8z m-56 -29 c-8 -62 -10 -63 -103 -63 -59 0 -81 3 -71 10 8 5 40
10 70 10 49 0 56 3 57 20 1 14 -5 20 -20 21 -12 1 -4 5 18 9 22 4 43 8 46 9 3
0 5 -7 3 -16z m86 -23 c0 -5 -7 -10 -15 -10 -8 0 -15 5 -15 10 0 6 7 10 15 10
8 0 15 -4 15 -10z m-240 -4 c0 -11 -19 -15 -25 -6 -3 5 1 10 9 10 9 0 16 -2
16 -4z m360 -46 c0 -5 -4 -10 -10 -10 -5 0 -10 5 -10 10 0 6 5 10 10 10 6 0
10 -4 10 -10z m-360 -10 c0 -12 -89 -10 -96 2 -3 4 18 8 45 8 28 0 51 -5 51
-10z m4900 0 c0 -5 -2 -10 -4 -10 -3 0 -8 5 -11 10 -3 6 -1 10 4 10 6 0 11 -4
11 -10z m-2947 -7 c-7 -2 -19 -2 -25 0 -7 3 -2 5 12 5 14 0 19 -2 13 -5z m597
3 c0 -2 -7 -7 -16 -10 -8 -3 -12 -2 -9 4 6 10 25 14 25 6z m-1645 -26 c8 0 17
-5 20 -10 4 -6 1 -9 -6 -8 -6 2 -14 -3 -17 -11 -3 -9 0 -12 10 -9 9 4 15 0 15
-8 0 -12 -4 -12 -24 1 -12 9 -23 11 -23 6 0 -5 5 -13 10 -16 6 -4 7 -11 4 -17
-5 -8 -1 -9 11 -4 15 5 16 4 5 -9 -7 -9 -10 -19 -6 -22 4 -4 12 -1 17 7 9 13
10 13 7 1 -7 -24 -29 -25 -35 -2 -3 11 -10 18 -16 14 -5 -3 -7 -1 -3 5 3 6 2
13 -4 17 -7 4 -7 12 0 25 7 13 7 21 0 25 -8 5 -7 12 2 22 8 10 14 11 16 4 2
-6 10 -11 17 -11z m1064 -33 c-2 -2 -20 -7 -39 -10 -34 -5 -34 -5 -7 6 15 6
27 15 27 21 0 6 5 5 12 -2 6 -6 10 -13 7 -15z m2455 12 c-3 -5 -11 -9 -19 -9
-8 0 -16 4 -19 9 -3 5 5 9 19 9 14 0 22 -4 19 -9z m56 1 c0 -5 -4 -10 -9 -10
-6 0 -13 5 -16 10 -3 6 1 10 9 10 9 0 16 -4 16 -10z m70 0 c0 -5 -4 -10 -10
-10 -5 0 -10 5 -10 10 0 6 5 10 10 10 6 0 10 -4 10 -10z m-2770 -35 c0 -8 -2
-15 -4 -15 -2 0 -6 7 -10 15 -3 8 -1 15 4 15 6 0 10 -7 10 -15z m203 -57 c15
-34 26 -62 24 -63 -1 -1 -15 -5 -32 -9 -19 -4 -25 -3 -16 3 11 7 10 18 -7 64
-19 50 -20 67 -3 67 4 0 19 -28 34 -62z m-2333 7 c6 -17 5 -40 -6 -75 -20 -69
-37 -65 -29 8 11 96 18 110 35 67z m4370 15 c0 -5 -4 -10 -10 -10 -5 0 -10 5
-10 10 0 6 5 10 10 10 6 0 10 -4 10 -10z m80 0 c0 -5 -7 -10 -15 -10 -8 0 -15
5 -15 10 0 6 7 10 15 10 8 0 15 -4 15 -10z m240 -2 c0 -5 -29 -8 -65 -8 -36 0
-65 3 -65 8 0 4 29 7 65 7 36 0 65 -3 65 -7z m70 2 c0 -5 -12 -10 -27 -9 l-28
1 25 8 c14 4 26 8 28 9 1 1 2 -3 2 -9z m75 0 c-3 -5 -14 -10 -23 -9 -14 0 -13
2 3 9 27 11 27 11 20 0z m70 0 c-3 -5 -12 -10 -18 -10 -7 0 -6 4 3 10 19 12
23 12 15 0z m-382 -7 c-7 -2 -19 -2 -25 0 -7 3 -2 5 12 5 14 0 19 -2 13 -5z
m-3282 -51 c-7 -2 -18 1 -23 6 -8 8 -4 9 13 5 13 -4 18 -8 10 -11z m-361 -2
c0 -5 -5 -10 -11 -10 -5 0 -7 5 -4 10 3 6 8 10 11 10 2 0 4 -4 4 -10z m2968
-2 c-2 -7 2 -12 8 -11 7 1 11 -5 10 -15 0 -9 5 -16 12 -14 8 1 11 -2 6 -9 -5
-9 -14 -3 -30 16 -13 16 -21 32 -18 37 8 12 14 10 12 -4z m1562 -33 c0 -19 -4
-35 -9 -35 -9 0 -12 49 -4 63 9 15 13 6 13 -28z m-5602 -23 c3 -39 1 -42 -22
-42 -28 0 -30 7 -20 59 10 49 38 37 42 -17z m537 18 c3 -5 1 -10 -4 -10 -6 0
-11 5 -11 10 0 6 2 10 4 10 3 0 8 -4 11 -10z m3465 -14 c0 -3 -4 -8 -10 -11
-5 -3 -10 -1 -10 4 0 6 5 11 10 11 6 0 10 -2 10 -4z m-3563 -22 c-3 -3 -12 -4
-19 -1 -8 3 -5 6 6 6 11 1 17 -2 13 -5z m-29 -26 c-5 -13 -45 -18 -68 -9 -10
4 -5 8 15 12 47 10 57 10 53 -3z m5183 -34 l-9 -39 -1 36 c-1 20 2 39 6 42 12
13 13 0 4 -39z m-4558 9 c-7 -2 -19 -2 -25 0 -7 3 -2 5 12 5 14 0 19 -2 13 -5z
m2148 -25 c11 -20 10 -21 -3 -11 -8 7 -18 10 -22 6 -4 -4 -4 0 0 10 8 22 11
22 25 -5z m916 -1 c40 1 75 -3 78 -8 9 -13 45 -11 45 2 0 15 167 6 183 -10 25
-25 -12 -32 -186 -32 -97 0 -179 -4 -182 -9 -10 -17 38 -21 208 -18 92 2 167
0 167 -4 0 -5 -83 -8 -184 -8 -135 0 -186 3 -193 13 -6 6 -15 32 -21 57 -8 35
-8 42 1 30 9 -11 30 -15 84 -13z m-2992 3 c3 -5 -3 -10 -14 -10 -12 0 -21 5
-21 10 0 6 6 10 14 10 8 0 18 -4 21 -10z m1938 -27 c-7 -2 -19 -2 -25 0 -7 3
-2 5 12 5 14 0 19 -2 13 -5z m159 -15 c-14 -14 -148 -25 -139 -11 3 5 27 10
54 12 26 1 49 4 52 7 2 2 13 4 25 4 16 0 17 -3 8 -12z m-1827 -28 c-4 -12 -9
-19 -12 -17 -3 3 -2 15 2 27 4 12 9 19 12 17 3 -3 2 -15 -2 -27z m-161 -2 c3
-13 8 -40 11 -61 3 -21 8 -44 11 -51 3 -9 -5 -15 -25 -18 l-29 -4 -7 67 c-4
37 -4 73 0 78 11 19 34 12 39 -11z m495 18 c-2 -2 -53 -6 -114 -9 -60 -3 -118
-8 -127 -12 -13 -5 -18 -2 -18 9 0 14 17 16 132 16 72 0 129 -2 127 -4z
m-1139 -18 c0 -6 -5 -40 -11 -74 l-11 -63 -54 -7 c-30 -3 -58 -4 -61 0 -6 5
13 115 21 123 4 4 92 30 109 32 4 1 7 -4 7 -11z m1215 2 c3 -5 -1 -10 -9 -10
-8 0 -18 5 -21 10 -3 6 1 10 9 10 8 0 18 -4 21 -10z m942 4 c-3 -3 -12 -4 -19
-1 -8 3 -5 6 6 6 11 1 17 -2 13 -5z m66 -1 c-7 -2 -19 -2 -25 0 -7 3 -2 5 12
5 14 0 19 -2 13 -5z m170 0 c-13 -2 -33 -2 -45 0 -13 2 -3 4 22 4 25 0 35 -2
23 -4z m231 -12 c-3 -9 -7 -22 -7 -28 0 -10 -4 -10 -14 -1 -7 6 -16 8 -20 4
-3 -3 -1 -6 5 -6 7 0 12 -6 12 -14 0 -17 70 -17 82 -1 4 6 8 2 8 -7 0 -15 -9
-18 -49 -18 -31 0 -55 6 -65 15 -20 20 -28 19 -24 -5 3 -19 -5 -22 -30 -13 -7
3 -26 3 -42 1 -16 -3 -28 -2 -25 0 3 3 0 11 -6 18 -17 20 -3 47 21 41 11 -3
20 -1 20 5 0 6 -13 8 -30 6 -17 -3 -27 -1 -23 3 5 5 44 9 88 11 44 2 86 3 93
4 8 0 10 -5 6 -15z m1319 12 c-18 -2 -48 -2 -65 0 -18 2 -4 4 32 4 36 0 50 -2
33 -4z m-2323 -33 c0 -5 -5 -10 -11 -10 -5 0 -7 5 -4 10 3 6 8 10 11 10 2 0 4
-4 4 -10z m410 6 c0 -3 -4 -8 -10 -11 -5 -3 -10 -1 -10 4 0 6 5 11 10 11 6 0
10 -2 10 -4z m120 -4 c0 -4 -19 -6 -42 -4 -71 5 -77 10 -15 11 31 0 57 -2 57
-7z m50 -3 c0 -5 -9 -9 -20 -9 -11 0 -20 4 -20 8 0 4 9 8 20 9 11 1 20 -2 20
-8z m70 -1 c0 -5 -13 -8 -30 -8 -16 0 -30 4 -30 8 0 4 14 8 30 7 17 0 30 -3
30 -7z m90 1 c0 -5 -18 -9 -40 -9 -22 0 -40 3 -40 8 0 4 18 8 40 8 22 1 40 -3
40 -7z m50 7 c0 -3 -4 -8 -10 -11 -5 -3 -10 -1 -10 4 0 6 5 11 10 11 6 0 10
-2 10 -4z m1465 -16 c3 -5 -1 -10 -10 -10 -9 0 -13 5 -10 10 3 6 8 10 10 10 2
0 7 -4 10 -10z m470 0 c3 -5 -62 -10 -145 -12 -117 -2 -150 0 -150 10 0 10 33
12 145 11 80 0 147 -5 150 -9z m85 0 c0 -5 -15 -9 -32 -9 l-33 1 30 8 c17 4
31 8 33 9 1 0 2 -3 2 -9z m-645 -10 c-29 -7 -296 -1 -304 6 -2 2 72 3 165 3
93 -1 156 -5 139 -9z m228 3 c-13 -2 -33 -2 -45 0 -13 2 -3 4 22 4 25 0 35 -2
23 -4z m165 -20 c-21 -2 -55 -2 -75 0 -21 2 -4 4 37 4 41 0 58 -2 38 -4z
m-1068 -43 c0 -36 3 -40 25 -40 16 0 25 -6 25 -16 0 -8 4 -13 9 -10 5 3 11 0
14 -7 3 -8 0 -14 -6 -15 -21 -1 -141 -23 -158 -28 -13 -4 -15 4 -11 51 4 44 1
56 -12 61 -22 8 -21 26 2 22 9 -2 16 3 15 10 -2 8 12 12 47 12 l50 0 0 -40z
m22 5 c-2 -14 -6 -25 -8 -25 -2 0 -4 11 -4 25 0 14 4 25 9 25 4 0 6 -11 3 -25z
m228 15 c0 -5 -12 -10 -27 -10 -20 0 -24 -3 -14 -9 9 -6 -8 -10 -50 -13 -62
-3 -79 3 -79 30 0 9 24 12 85 12 50 0 85 -4 85 -10z m-3860 -32 c0 -6 -7 -5
-15 2 -8 7 -15 17 -15 22 0 6 7 5 15 -2 8 -7 15 -17 15 -22z m3668 8 c0 -16
-5 -23 -13 -20 -7 3 -11 14 -8 25 7 27 21 24 21 -5z m-2310 7 c-10 -2 -26 -2
-35 0 -10 3 -2 5 17 5 19 0 27 -2 18 -5z m1656 -8 c15 -8 32 -12 37 -9 5 3 9
0 9 -5 0 -6 10 -11 23 -11 20 0 20 -1 -7 -15 -15 -8 -39 -15 -51 -15 -20 0
-26 -9 -39 -54 -9 -30 -16 -60 -16 -66 0 -9 -11 -10 -37 -5 -21 4 -40 9 -42
11 -7 6 31 84 62 126 15 21 25 43 22 48 -9 14 6 12 39 -5z m189 -5 c-6 -22
-23 -38 -23 -21 0 17 12 41 20 41 5 0 6 -9 3 -20z m710 -114 c31 -57 57 -108
57 -114 0 -5 -20 -17 -45 -25 -55 -19 -58 -14 -7 13 33 18 34 19 8 14 -26 -6
-27 -5 -17 15 10 17 9 21 -4 21 -9 0 -15 9 -15 25 0 14 -4 25 -10 25 -5 0 -10
-5 -10 -11 0 -6 -7 -3 -15 5 -9 8 -15 28 -13 43 2 23 -1 29 -20 31 -13 2 -28
-1 -35 -6 -19 -15 -67 -24 -67 -12 0 5 5 10 10 10 6 0 11 8 11 18 1 16 2 16 6
0 5 -22 23 -24 23 -3 0 8 5 15 10 15 6 0 10 9 10 20 0 16 7 20 33 20 30 -1 35
-6 90 -104z m-750 87 c-7 -2 -19 -2 -25 0 -7 3 -2 5 12 5 14 0 19 -2 13 -5z
m1312 -13 c-3 -5 -11 -10 -16 -10 -6 0 -7 5 -4 10 3 6 11 10 16 10 6 0 7 -4 4
-10z m-2677 -9 c-6 -17 -80 -93 -85 -87 -7 7 66 96 79 96 5 0 8 -4 6 -9z
m2639 3 c-3 -3 -12 -4 -19 -1 -8 3 -5 6 6 6 11 1 17 -2 13 -5z m-1603 -20 c8
-20 8 -89 0 -97 -13 -13 -34 24 -34 61 0 50 20 72 34 36z m1531 6 c-3 -5 -10
-10 -16 -10 -5 0 -9 5 -9 10 0 6 7 10 16 10 8 0 12 -4 9 -10z m-75 -7 c0 -25
-56 -143 -67 -143 -17 0 -12 20 22 98 13 28 29 52 34 52 6 0 11 -3 11 -7z
m-2860 -33 c0 -5 -4 -10 -10 -10 -5 0 -10 5 -10 10 0 6 5 10 10 10 6 0 10 -4
10 -10z m768 -64 c-2 -39 -7 -52 -20 -54 -15 -3 -18 4 -18 46 0 66 8 86 27 71
9 -8 13 -28 11 -63z m1970 -44 c2 -79 1 -91 -13 -86 -8 3 -15 1 -15 -5 0 -6
-3 -11 -7 -11 -8 0 -6 139 3 178 2 13 10 22 17 19 8 -2 13 -34 15 -95z m-3779
51 c-1 -41 -15 -105 -19 -88 -1 6 -2 24 -2 40 0 26 0 27 -5 5 -9 -47 -26 -48
-19 -1 12 80 47 114 45 44z m1041 17 c0 -5 -4 -10 -10 -10 -5 0 -10 5 -10 10
0 6 5 10 10 10 6 0 10 -4 10 -10z m743 -115 c-7 -21 -13 -19 -13 6 0 11 4 18
10 14 5 -3 7 -12 3 -20z m-754 -26 c-7 -14 -6 -19 2 -19 7 0 9 -3 6 -6 -3 -4
0 -16 8 -28 22 -31 18 -39 -10 -20 -20 13 -25 24 -25 60 0 34 3 42 15 38 11
-5 12 -11 4 -25z m-264 -19 c3 -5 -1 -10 -9 -10 -9 0 -16 5 -16 10 0 6 4 10 9
10 6 0 13 -4 16 -10z m-498 -6 c-3 -3 -12 -4 -19 -1 -8 3 -5 6 6 6 11 1 17 -2
13 -5z m2956 -24 c23 -28 22 -30 -13 -23 -18 3 -30 1 -30 -5 0 -8 -58 -10
-182 -9 -179 2 -183 2 -186 23 -3 22 -1 22 173 22 97 0 179 3 182 6 13 12 39
5 56 -14z m-593 0 c0 -5 -4 -10 -10 -10 -5 0 -10 5 -10 10 0 6 5 10 10 10 6 0
10 -4 10 -10z m-205 -10 c3 -5 -3 -10 -14 -10 -12 0 -21 5 -21 10 0 6 6 10 14
10 8 0 18 -4 21 -10z m-2062 -7 c-7 -2 -21 -2 -30 0 -10 3 -4 5 12 5 17 0 24
-2 18 -5z m-838 -23 c3 -5 1 -10 -4 -10 -6 0 -11 5 -11 10 0 6 2 10 4 10 3 0
8 -4 11 -10z m1770 -5 c-56 -13 -194 -21 -184 -11 2 3 33 7 68 10 34 2 65 7
69 10 3 3 28 6 56 5 l51 -1 -60 -13z m990 4 c11 -16 2 -17 -25 -2 -24 12 -24
13 -3 13 12 0 25 -5 28 -11z m250 -34 c0 -18 -7 -20 -75 -22 l-75 -1 55 13
c46 11 49 13 23 14 -18 0 -33 6 -33 12 0 6 21 9 53 7 44 -3 52 -6 52 -23z
m235 20 c0 -3 -9 -14 -20 -25 -11 -11 -20 -16 -20 -10 0 5 -39 11 -87 12 -58
2 -88 7 -91 16 -3 9 23 12 107 12 61 0 111 -2 111 -5z m415 -5 c3 -5 1 -10 -4
-10 -6 0 -11 5 -11 10 0 6 2 10 4 10 3 0 8 -4 11 -10z m998 -10 c-13 -12 -586
-17 -590 -5 -2 7 96 11 279 13 155 1 284 4 286 7 2 2 11 1 19 -2 8 -3 11 -9 6
-13z m-3083 -1 c0 -6 -30 -9 -82 -8 -125 3 -141 18 -20 18 65 1 102 -3 102
-10z m640 7 c0 -2 -7 -7 -16 -10 -8 -3 -12 -2 -9 4 6 10 25 14 25 6z m-63 -12
c-3 -3 -12 -4 -19 -1 -8 3 -5 6 6 6 11 1 17 -2 13 -5z m1346 -1 c-7 -2 -19 -2
-25 0 -7 3 -2 5 12 5 14 0 19 -2 13 -5z m295 0 c-15 -2 -42 -2 -60 0 -18 2 -6
4 27 4 33 0 48 -2 33 -4z m-143 -23 c-3 -6 -19 -8 -36 -5 -19 4 -29 1 -29 -7
0 -9 -4 -8 -11 2 -9 12 -12 13 -16 1 -5 -11 -7 -11 -14 0 -6 10 -9 11 -9 2 0
-7 -5 -13 -11 -13 -5 0 -7 5 -4 10 3 6 1 10 -4 10 -6 0 -11 -6 -11 -12 0 -9
-4 -8 -11 2 -9 12 -12 13 -16 1 -5 -11 -7 -11 -14 0 -7 12 -9 11 -9 -1 0 -13
-1 -13 -10 0 -9 13 -11 13 -20 0 -6 -9 -10 -10 -10 -3 0 7 -19 14 -42 16 -24
2 30 4 120 5 107 1 161 -1 157 -8z m165 -20 c0 -12 -79 -10 -86 2 -3 4 15 8
40 8 25 0 46 -4 46 -10z m-1597 -15 c-3 -9 -8 -14 -10 -11 -3 3 -2 9 2 15 9
16 15 13 8 -4z m935 8 c-15 -2 -42 -2 -60 0 -18 2 -6 4 27 4 33 0 48 -2 33 -4z
m202 -3 c0 -5 -4 -10 -10 -10 -5 0 -10 5 -10 10 0 6 5 10 10 10 6 0 10 -4 10
-10z m1330 6 c0 -3 -4 -8 -10 -11 -5 -3 -10 -1 -10 4 0 6 5 11 10 11 6 0 10
-2 10 -4z m-58 -38 c-8 -8 -9 -4 -5 13 4 13 8 18 11 10 2 -7 -1 -18 -6 -23z
m-2244 -42 c4 -4 -17 1 -47 13 -30 11 -59 25 -64 30 -6 6 16 0 47 -13 31 -13
60 -26 64 -30z m2355 -54 c-15 -34 -33 -62 -40 -62 -8 0 -6 13 8 43 11 23 25
55 31 70 6 16 14 25 19 20 5 -5 -3 -35 -18 -71z m132 58 c4 -6 -12 -10 -39
-10 -25 0 -46 5 -46 10 0 6 18 10 39 10 22 0 43 -4 46 -10z m-1838 -6 c-3 -3
-12 -4 -19 -1 -8 3 -5 6 6 6 11 1 17 -2 13 -5z m-740 -10 c-3 -3 -12 -4 -19
-1 -8 3 -5 6 6 6 11 1 17 -2 13 -5z m-517 -14 c0 -5 -6 -10 -14 -10 -8 0 -18
5 -21 10 -3 6 3 10 14 10 12 0 21 -4 21 -10z m1850 -81 c6 -11 9 -32 6 -47 -3
-15 -6 -50 -8 -79 -1 -29 -6 -49 -11 -46 -5 3 -13 -1 -18 -8 -10 -17 -12 71
-3 149 7 56 17 64 34 31z m-1245 -32 c7 -6 -6 -8 -39 -3 -27 3 -59 6 -72 6
-13 0 -24 5 -24 10 0 14 121 2 135 -13z m-665 -27 c8 -5 11 -10 5 -10 -5 0
-17 5 -25 10 -8 5 -10 10 -5 10 6 0 17 -5 25 -10z m-925 -50 c3 -5 1 -10 -4
-10 -6 0 -11 5 -11 10 0 6 2 10 4 10 3 0 8 -4 11 -10z m-163 -98 c-3 -7 -7
-11 -9 -8 -8 7 -11 70 -4 81 7 12 19 -54 13 -73z m157 56 c-2 -13 0 -28 4 -35
9 -14 -2 -45 -14 -38 -11 8 -9 95 3 95 5 0 8 -10 7 -22z m473 -31 c-4 -17 -6
-18 -14 -3 -5 9 -6 26 -2 39 7 21 7 21 14 2 4 -11 5 -28 2 -38z m-732 22 c0
-6 -4 -7 -10 -4 -5 3 -10 11 -10 16 0 6 5 7 10 4 6 -3 10 -11 10 -16z m0 -29
c0 -5 -2 -10 -4 -10 -3 0 -8 5 -11 10 -3 6 -1 10 4 10 6 0 11 -4 11 -10z
m4037 -17 c3 -8 -59 -12 -236 -12 -171 -1 -241 2 -241 9 0 8 61 11 210 9 115
-1 213 1 217 5 10 10 46 3 50 -11z m-487 -3 c0 -6 -45 -9 -117 -8 l-118 2 90
6 c50 3 102 7 118 8 15 1 27 -2 27 -8z m-305 -10 c-22 -5 -44 -4 -49 1 -6 5
10 9 40 8 l49 -1 -40 -8z m-1477 -67 c-10 -2 -26 -2 -35 0 -10 3 -2 5 17 5 19
0 27 -2 18 -5z m89 1 c-3 -3 -12 -4 -19 -1 -8 3 -5 6 6 6 11 1 17 -2 13 -5z
m56 -1 c-7 -2 -21 -2 -30 0 -10 3 -4 5 12 5 17 0 24 -2 18 -5z m650 -2 c57 0
97 -5 97 -11 0 -5 -20 -10 -44 -10 -25 0 -48 -4 -51 -10 -7 -11 -165 -10 -165
2 0 4 8 9 18 9 16 1 16 2 0 6 -10 2 -25 -3 -34 -11 -13 -13 -43 -16 -168 -16
-105 0 -156 4 -164 12 -19 19 -14 28 16 28 26 -1 26 -1 8 -15 -18 -14 -9 -15
85 -15 58 0 109 3 113 8 9 9 131 28 166 26 14 -1 69 -2 123 -3z m-543 -17
c-15 -18 -81 -15 -88 4 -2 8 12 12 48 12 46 0 51 -2 40 -16z m2080 1 c7 -9 8
-15 2 -15 -5 0 -12 7 -16 15 -3 8 -4 15 -2 15 2 0 9 -7 16 -15z m-2720 -15 c0
-11 -240 -12 -415 0 -88 5 -59 7 153 8 169 1 262 -2 262 -8z m453 3 c-7 -2
-19 -2 -25 0 -7 3 -2 5 12 5 14 0 19 -2 13 -5z m857 -7 c0 -11 -19 -15 -25 -6
-3 5 1 10 9 10 9 0 16 -2 16 -4z m195 -6 c21 -5 0 -8 -65 -9 -52 0 -102 4
-110 9 -18 12 129 12 175 0z m-1418 -16 c-3 -3 -12 -4 -19 -1 -8 3 -5 6 6 6
11 1 17 -2 13 -5z m61 -1 c-10 -2 -26 -2 -35 0 -10 3 -2 5 17 5 19 0 27 -2 18
-5z m342 -13 c0 -5 -7 -10 -16 -10 -8 0 -12 5 -9 10 3 6 10 10 16 10 5 0 9 -4
9 -10z m1159 -16 c2 -2 -73 -4 -167 -4 -95 0 -172 4 -172 8 0 8 331 4 339 -4z
m-379 -34 c0 -5 -4 -10 -10 -10 -5 0 -10 5 -10 10 0 6 5 10 10 10 6 0 10 -4
10 -10z m2115 -60 c-10 -11 -23 -20 -28 -20 -6 0 -2 9 8 20 10 11 23 20 28 20
6 0 2 -9 -8 -20z m-2346 -58 c19 -24 30 -46 26 -50 -3 -4 -10 0 -15 8 -5 8
-20 30 -34 49 -14 19 -26 39 -26 45 0 12 3 8 49 -52z m-1529 -63 c0 -44 -4
-59 -14 -59 -10 0 -15 16 -18 53 -5 69 0 91 18 76 9 -7 14 -32 14 -70z m2870
24 c0 -14 -6 -23 -15 -23 -16 0 -18 12 -8 48 4 18 8 20 14 10 5 -7 9 -23 9
-35z m-3770 -53 c0 -5 -9 -10 -21 -10 -11 0 -17 5 -14 10 3 6 13 10 21 10 8 0
14 -4 14 -10z m2565 -171 c-10 -15 -65 -11 -65 5 0 8 8 16 18 19 22 5 54 -11
47 -24z m2090 11 c3 -5 -1 -10 -9 -10 -9 0 -16 5 -16 10 0 6 4 10 9 10 6 0 13
-4 16 -10z m-2166 -16 c2 -2 -57 -4 -132 -4 -78 0 -137 4 -137 9 0 9 259 3
269 -5z m-499 -10 c0 -13 -18 -15 -132 -14 -73 2 -162 -1 -198 -4 -36 -4 -103
-3 -150 2 l-85 9 120 3 c66 1 143 5 170 10 28 4 101 8 163 9 96 1 112 -1 112
-15z m2005 6 c3 -5 1 -10 -4 -10 -6 0 -11 5 -11 10 0 6 2 10 4 10 3 0 8 -4 11
-10z m-1975 -26 c0 -8 -5 -12 -10 -9 -6 4 -8 11 -5 16 9 14 15 11 15 -7z
m1540 -3 c0 -4 -14 -8 -30 -9 -17 0 -28 3 -26 6 6 11 56 13 56 3z m25 -11 c3
-5 1 -10 -4 -10 -6 0 -11 5 -11 10 0 6 2 10 4 10 3 0 8 -4 11 -10z m155 0 c0
-12 -24 -12 -60 0 -21 7 -19 8 18 9 23 1 42 -3 42 -9z m-3852 -56 c5 -78 -6
-136 -26 -132 -15 3 -17 15 -13 88 2 47 5 89 8 93 12 21 28 -4 31 -49z m3417
46 c4 -6 -17 -10 -54 -10 -34 0 -61 4 -61 10 0 6 24 10 54 10 30 0 58 -4 61
-10z m-286 -16 c10 -9 -136 -3 -149 6 -10 7 10 8 65 4 44 -4 82 -8 84 -10z
m-2059 -4 c12 -8 9 -10 -12 -10 -16 0 -28 5 -28 10 0 13 20 13 40 0z m79 6
c-12 -10 -60 -16 -54 -6 3 5 18 10 32 10 15 0 24 -2 22 -4z m1493 -11 c19 -25
7 -40 -32 -42 -43 -1 -43 -1 -34 35 5 18 13 22 33 20 14 -2 29 -7 33 -13z
m223 6 c3 -5 -21 -10 -55 -10 -33 0 -60 4 -60 10 0 12 107 12 115 0z m-1887
-8 c-16 -2 -40 -2 -55 0 -16 2 -3 4 27 4 30 0 43 -2 28 -4z m-698 -21 c0 -4
-9 -8 -20 -9 -11 -1 -20 2 -20 8 0 5 9 9 20 9 11 0 20 -4 20 -8z m4005 -2 c3
-5 1 -10 -4 -10 -6 0 -11 5 -11 10 0 6 2 10 4 10 3 0 8 -4 11 -10z m-4000 -30
c-3 -5 -16 -10 -28 -10 -18 0 -19 2 -7 10 20 13 43 13 35 0z m2715 -16 c0 -8
-4 -14 -10 -14 -5 0 -10 9 -10 21 0 11 5 17 10 14 6 -3 10 -13 10 -21z m-1570
-3 c0 -13 -9 -20 -32 -24 -38 -6 -51 3 -42 26 9 25 74 23 74 -2z m1740 -261
c0 -5 -11 -10 -25 -10 -14 0 -25 5 -25 10 0 6 11 10 25 10 14 0 25 -4 25 -10z
m-103 -46 c2 -7 -20 -14 -58 -18 -85 -8 -299 -8 -299 2 0 4 57 7 128 7 86 0
133 4 147 13 23 15 77 12 82 -4z m40 10 c-3 -3 -12 -4 -19 -1 -8 3 -5 6 6 6
11 1 17 -2 13 -5z m-2684 -11 c-7 -2 -19 -2 -25 0 -7 3 -2 5 12 5 14 0 19 -2
13 -5z m3305 0 c144 -11 88 -23 -107 -23 -155 0 -191 3 -201 15 -11 13 2 15
106 15 66 0 156 -3 202 -7z m-380 -10 c-27 -2 -69 -2 -95 0 -27 2 -5 3 47 3
52 0 74 -1 48 -3z m-2615 -60 c59 -3 107 -10 107 -16 0 -6 -32 -7 -82 -3 -46
3 -111 7 -145 8 -35 1 -63 5 -63 10 0 10 42 10 183 1z m3617 -8 c7 -9 8 -15 2
-15 -5 0 -12 7 -16 15 -3 8 -4 15 -2 15 2 0 9 -7 16 -15z m-3880 -55 c0 -5 -5
-10 -11 -10 -5 0 -7 5 -4 10 3 6 8 10 11 10 2 0 4 -4 4 -10z m2880 -50 c0 -5
-12 -10 -27 -9 l-28 1 25 8 c14 4 26 8 28 9 1 1 2 -3 2 -9z m-1800 -40 c0 -5
-10 -10 -22 -9 -22 0 -22 1 -3 9 11 5 21 9 23 9 1 1 2 -3 2 -9z m1910 -230 c0
-5 -7 -10 -15 -10 -8 0 -15 5 -15 10 0 6 7 10 15 10 8 0 15 -4 15 -10z m-433
-46 c-3 -3 -12 -4 -19 -1 -8 3 -5 6 6 6 11 1 17 -2 13 -5z m-468 -40 c2 -2
-24 -4 -58 -4 -38 0 -60 4 -56 10 5 9 104 4 114 -6z m184 -1 c-13 -2 -33 -2
-45 0 -13 2 -3 4 22 4 25 0 35 -2 23 -4z m-1926 -105 c-3 -7 -5 -2 -5 12 0 14
2 19 5 13 2 -7 2 -19 0 -25z m4183 12 c-20 -13 -33 -13 -25 0 3 6 14 10 23 10
15 0 15 -2 2 -10z m-50 -14 c0 -9 -56 -44 -80 -50 -17 -5 -13 0 12 14 20 11
40 24 43 30 6 10 25 14 25 6z m-4110 -36 c0 -5 -2 -10 -4 -10 -3 0 -8 5 -11
10 -3 6 -1 10 4 10 6 0 11 -4 11 -10z m4075 -20 c-3 -5 -12 -10 -18 -10 -7 0
-6 4 3 10 19 12 23 12 15 0z"/>
<path d="M1880 3256 c0 -2 7 -7 16 -10 8 -3 12 -2 9 4 -6 10 -25 14 -25 6z"/>
<path d="M3513 2853 c-21 -4 -32 -22 -15 -24 64 -9 80 -7 78 9 -3 18 -25 23
-63 15z"/>
<path d="M4400 2640 c0 -5 7 -7 15 -4 8 4 15 8 15 10 0 2 -7 4 -15 4 -8 0 -15
-4 -15 -10z"/>
<path d="M2710 2570 c0 -5 5 -10 10 -10 6 0 10 5 10 10 0 6 -4 10 -10 10 -5 0
-10 -4 -10 -10z"/>
<path d="M1852 1550 c0 -19 2 -27 5 -17 2 9 2 25 0 35 -3 9 -5 1 -5 -18z"/>
<path d="M830 1178 c0 -39 2 -69 4 -67 9 10 14 139 5 139 -5 0 -9 -32 -9 -72z"/>
<path d="M3480 1229 c0 -5 5 -7 10 -4 6 3 10 8 10 11 0 2 -4 4 -10 4 -5 0 -10
-5 -10 -11z"/>
<path d="M2581 3494 c0 -11 3 -14 6 -6 3 7 2 16 -1 19 -3 4 -6 -2 -5 -13z"/>
<path d="M4315 3500 c3 -5 8 -10 11 -10 2 0 4 5 4 10 0 6 -5 10 -11 10 -5 0
-7 -4 -4 -10z"/>
<path d="M4385 3500 c4 -6 11 -8 16 -5 14 9 11 15 -7 15 -8 0 -12 -5 -9 -10z"/>
<path d="M4460 3500 c0 -5 5 -10 10 -10 6 0 10 5 10 10 0 6 -4 10 -10 10 -5 0
-10 -4 -10 -10z"/>
<path d="M4530 3500 c0 -5 5 -10 10 -10 6 0 10 5 10 10 0 6 -4 10 -10 10 -5 0
-10 -4 -10 -10z"/>
<path d="M1784 3455 c-16 -12 -17 -14 -3 -15 9 0 19 7 23 15 7 19 5 19 -20 0z"/>
<path d="M3570 3459 c0 -5 5 -7 10 -4 6 3 10 8 10 11 0 2 -4 4 -10 4 -5 0 -10
-5 -10 -11z"/>
<path d="M1440 3450 c0 -5 5 -10 11 -10 5 0 7 5 4 10 -3 6 -8 10 -11 10 -2 0
-4 -4 -4 -10z"/>
<path d="M1505 3450 c-3 -5 -1 -10 4 -10 6 0 11 5 11 10 0 6 -2 10 -4 10 -3 0
-8 -4 -11 -10z"/>
<path d="M1575 3450 c-3 -5 -1 -10 4 -10 6 0 11 5 11 10 0 6 -2 10 -4 10 -3 0
-8 -4 -11 -10z"/>
<path d="M1640 3450 c0 -5 5 -10 10 -10 6 0 10 5 10 10 0 6 -4 10 -10 10 -5 0
-10 -4 -10 -10z"/>
<path d="M1710 3450 c0 -5 5 -10 10 -10 6 0 10 5 10 10 0 6 -4 10 -10 10 -5 0
-10 -4 -10 -10z"/>
<path d="M2578 3453 c7 -3 16 -2 19 1 4 3 -2 6 -13 5 -11 0 -14 -3 -6 -6z"/>
<path d="M3590 3440 c0 -5 5 -10 10 -10 6 0 10 5 10 10 0 6 -4 10 -10 10 -5 0
-10 -4 -10 -10z"/>
<path d="M3660 3440 c0 -5 5 -10 10 -10 6 0 10 5 10 10 0 6 -4 10 -10 10 -5 0
-10 -4 -10 -10z"/>
<path d="M3875 3430 c3 -5 8 -10 11 -10 2 0 4 5 4 10 0 6 -5 10 -11 10 -5 0
-7 -4 -4 -10z"/>
<path d="M3950 3429 c0 -5 5 -7 10 -4 6 3 10 8 10 11 0 2 -4 4 -10 4 -5 0 -10
-5 -10 -11z"/>
<path d="M4090 3430 c0 -5 5 -10 10 -10 6 0 10 5 10 10 0 6 -4 10 -10 10 -5 0
-10 -4 -10 -10z"/>
<path d="M4240 3430 c0 -5 5 -10 10 -10 6 0 10 5 10 10 0 6 -4 10 -10 10 -5 0
-10 -4 -10 -10z"/>
<path d="M4310 3430 c0 -5 5 -10 10 -10 6 0 10 5 10 10 0 6 -4 10 -10 10 -5 0
-10 -4 -10 -10z"/>
<path d="M4385 3430 c-3 -5 -1 -10 4 -10 6 0 11 5 11 10 0 6 -2 10 -4 10 -3 0
-8 -4 -11 -10z"/>
<path d="M4460 3430 c0 -5 5 -10 10 -10 6 0 10 5 10 10 0 6 -4 10 -10 10 -5 0
-10 -4 -10 -10z"/>
<path d="M4530 3430 c0 -5 5 -10 10 -10 6 0 10 5 10 10 0 6 -4 10 -10 10 -5 0
-10 -4 -10 -10z"/>
<path d="M4600 3430 c0 -5 5 -10 10 -10 6 0 10 5 10 10 0 6 -4 10 -10 10 -5 0
-10 -4 -10 -10z"/>
<path d="M1370 3381 c0 -5 5 -13 10 -16 6 -3 10 -2 10 4 0 5 -4 13 -10 16 -5
3 -10 2 -10 -4z"/>
<path d="M1440 3380 c0 -5 5 -10 11 -10 5 0 7 5 4 10 -3 6 -8 10 -11 10 -2 0
-4 -4 -4 -10z"/>
<path d="M1640 3374 c0 -8 5 -12 10 -9 6 4 8 11 5 16 -9 14 -15 11 -15 -7z"/>
<path d="M1710 3374 c0 -8 5 -12 10 -9 6 4 8 11 5 16 -9 14 -15 11 -15 -7z"/>
<path d="M1780 3374 c0 -8 5 -12 10 -9 6 4 8 11 5 16 -9 14 -15 11 -15 -7z"/>
<path d="M1846 3381 c-4 -5 -2 -12 3 -15 5 -4 12 -2 15 3 4 5 2 12 -3 15 -5 4
-12 2 -15 -3z"/>
<path d="M3590 3370 c0 -5 5 -10 10 -10 6 0 10 5 10 10 0 6 -4 10 -10 10 -5 0
-10 -4 -10 -10z"/>
<path d="M3660 3370 c0 -5 5 -10 11 -10 5 0 7 5 4 10 -3 6 -8 10 -11 10 -2 0
-4 -4 -4 -10z"/>
<path d="M3805 3360 c3 -5 8 -10 11 -10 2 0 4 5 4 10 0 6 -5 10 -11 10 -5 0
-7 -4 -4 -10z"/>
<path d="M3875 3360 c3 -5 8 -10 11 -10 2 0 4 5 4 10 0 6 -5 10 -11 10 -5 0
-7 -4 -4 -10z"/>
<path d="M4020 3359 c0 -5 5 -7 10 -4 6 3 10 8 10 11 0 2 -4 4 -10 4 -5 0 -10
-5 -10 -11z"/>
<path d="M4090 3360 c0 -5 5 -10 10 -10 6 0 10 5 10 10 0 6 -4 10 -10 10 -5 0
-10 -4 -10 -10z"/>
<path d="M4385 3360 c-3 -5 -1 -10 4 -10 6 0 11 5 11 10 0 6 -2 10 -4 10 -3 0
-8 -4 -11 -10z"/>
<path d="M4460 3360 c0 -5 5 -10 11 -10 5 0 7 5 4 10 -3 6 -8 10 -11 10 -2 0
-4 -4 -4 -10z"/>
<path d="M4530 3360 c0 -5 5 -10 10 -10 6 0 10 5 10 10 0 6 -4 10 -10 10 -5 0
-10 -4 -10 -10z"/>
<path d="M4600 3360 c0 -5 5 -10 10 -10 6 0 10 5 10 10 0 6 -4 10 -10 10 -5 0
-10 -4 -10 -10z"/>
<path d="M3128 3353 c7 -3 16 -2 19 1 4 3 -2 6 -13 5 -11 0 -14 -3 -6 -6z"/>
<path d="M4265 3340 c-18 -8 -17 -9 8 -9 16 -1 26 3 22 9 -3 6 -7 10 -8 9 -1
0 -11 -4 -22 -9z"/>
<path d="M4168 3333 c7 -3 16 -2 19 1 4 3 -2 6 -13 5 -11 0 -14 -3 -6 -6z"/>
<path d="M4338 3333 c7 -3 16 -2 19 1 4 3 -2 6 -13 5 -11 0 -14 -3 -6 -6z"/>
<path d="M4700 3325 c0 -9 5 -15 11 -13 6 2 11 8 11 13 0 5 -5 11 -11 13 -6 2
-11 -4 -11 -13z"/>
<path d="M1876 3321 c-4 -5 -2 -12 3 -15 5 -4 12 -2 15 3 4 5 2 12 -3 15 -5 4
-12 2 -15 -3z"/>
<path d="M1775 3311 c-3 -5 -1 -12 5 -16 5 -3 10 1 10 9 0 18 -6 21 -15 7z"/>
<path d="M1845 3311 c-3 -5 -1 -12 5 -16 5 -3 10 1 10 9 0 18 -6 21 -15 7z"/>
<path d="M1916 3311 c-4 -5 -2 -12 3 -15 5 -4 12 -2 15 3 4 5 2 12 -3 15 -5 4
-12 2 -15 -3z"/>
<path d="M1570 3299 c0 -5 5 -7 10 -4 6 3 10 8 10 11 0 2 -4 4 -10 4 -5 0 -10
-5 -10 -11z"/>
<path d="M1640 3299 c0 -5 5 -7 10 -4 6 3 10 8 10 11 0 2 -4 4 -10 4 -5 0 -10
-5 -10 -11z"/>
<path d="M4385 3290 c-3 -5 -1 -10 4 -10 6 0 11 5 11 10 0 6 -2 10 -4 10 -3 0
-8 -4 -11 -10z"/>
<path d="M4455 3290 c-3 -5 1 -10 10 -10 9 0 13 5 10 10 -3 6 -8 10 -10 10 -2
0 -7 -4 -10 -10z"/>
<path d="M4530 3290 c0 -5 5 -10 11 -10 5 0 7 5 4 10 -3 6 -8 10 -11 10 -2 0
-4 -4 -4 -10z"/>
<path d="M1775 3241 c-3 -5 -1 -12 5 -16 5 -3 10 1 10 9 0 18 -6 21 -15 7z"/>
<path d="M1505 3230 c3 -5 8 -10 11 -10 2 0 4 5 4 10 0 6 -5 10 -11 10 -5 0
-7 -4 -4 -10z"/>
<path d="M1570 3229 c0 -5 5 -7 10 -4 6 3 10 8 10 11 0 2 -4 4 -10 4 -5 0 -10
-5 -10 -11z"/>
<path d="M1640 3229 c0 -5 5 -7 10 -4 6 3 10 8 10 11 0 2 -4 4 -10 4 -5 0 -10
-5 -10 -11z"/>
<path d="M1817 3216 c-4 -10 -1 -13 8 -9 8 3 12 9 9 14 -7 12 -11 11 -17 -5z"/>
<path d="M3805 3220 c3 -5 8 -10 11 -10 2 0 4 5 4 10 0 6 -5 10 -11 10 -5 0
-7 -4 -4 -10z"/>
<path d="M3875 3220 c3 -5 8 -10 11 -10 2 0 4 5 4 10 0 6 -5 10 -11 10 -5 0
-7 -4 -4 -10z"/>
<path d="M3945 3220 c3 -5 8 -10 11 -10 2 0 4 5 4 10 0 6 -5 10 -11 10 -5 0
-7 -4 -4 -10z"/>
<path d="M4090 3220 c0 -5 5 -10 11 -10 5 0 7 5 4 10 -3 6 -8 10 -11 10 -2 0
-4 -4 -4 -10z"/>
<path d="M4160 3220 c0 -5 5 -10 10 -10 6 0 10 5 10 10 0 6 -4 10 -10 10 -5 0
-10 -4 -10 -10z"/>
<path d="M4235 3220 c-3 -5 -1 -10 4 -10 6 0 11 5 11 10 0 6 -2 10 -4 10 -3 0
-8 -4 -11 -10z"/>
<path d="M4310 3220 c0 -5 5 -10 11 -10 5 0 7 5 4 10 -3 6 -8 10 -11 10 -2 0
-4 -4 -4 -10z"/>
<path d="M4526 3221 c-4 -5 -2 -12 3 -15 5 -4 12 -2 15 3 4 5 2 12 -3 15 -5 4
-12 2 -15 -3z"/>
<path d="M4455 3210 c3 -5 8 -10 11 -10 2 0 4 5 4 10 0 6 -5 10 -11 10 -5 0
-7 -4 -4 -10z"/>
<path d="M1310 3159 c0 -5 5 -7 10 -4 6 3 10 8 10 11 0 2 -4 4 -10 4 -5 0 -10
-5 -10 -11z"/>
<path d="M1370 3160 c0 -5 5 -10 10 -10 6 0 10 5 10 10 0 6 -4 10 -10 10 -5 0
-10 -4 -10 -10z"/>
<path d="M1505 3160 c-3 -5 -1 -10 4 -10 6 0 11 5 11 10 0 6 -2 10 -4 10 -3 0
-8 -4 -11 -10z"/>
<path d="M1635 3160 c3 -5 8 -10 11 -10 2 0 4 5 4 10 0 6 -5 10 -11 10 -5 0
-7 -4 -4 -10z"/>
<path d="M1840 3160 c0 -5 5 -10 10 -10 6 0 10 5 10 10 0 6 -4 10 -10 10 -5 0
-10 -4 -10 -10z"/>
<path d="M1693 3125 c0 -8 4 -12 9 -9 5 3 6 10 3 15 -9 13 -12 11 -12 -6z"/>
<path d="M3585 3089 c-4 -5 5 -9 19 -9 14 0 26 -5 26 -12 0 -6 2 -9 5 -6 3 3
3 12 0 19 -6 17 -42 22 -50 8z"/>
<path d="M3660 3090 c0 -5 5 -10 10 -10 6 0 10 5 10 10 0 6 -4 10 -10 10 -5 0
-10 -4 -10 -10z"/>
<path d="M3727 3094 c-8 -8 1 -24 14 -24 5 0 9 7 9 15 0 15 -12 20 -23 9z"/>
<path d="M3800 3079 c0 -5 5 -7 10 -4 6 3 10 8 10 11 0 2 -4 4 -10 4 -5 0 -10
-5 -10 -11z"/>
<path d="M3870 3080 c0 -5 5 -10 10 -10 6 0 10 5 10 10 0 6 -4 10 -10 10 -5 0
-10 -4 -10 -10z"/>
<path d="M3940 3080 c0 -5 5 -10 10 -10 6 0 10 5 10 10 0 6 -4 10 -10 10 -5 0
-10 -4 -10 -10z"/>
<path d="M4010 3080 c0 -5 4 -10 9 -10 6 0 13 5 16 10 3 6 -1 10 -9 10 -9 0
-16 -4 -16 -10z"/>
<path d="M4160 3080 c0 -5 5 -10 10 -10 6 0 10 5 10 10 0 6 -4 10 -10 10 -5 0
-10 -4 -10 -10z"/>
<path d="M4230 3080 c0 -5 5 -10 10 -10 6 0 10 5 10 10 0 6 -4 10 -10 10 -5 0
-10 -4 -10 -10z"/>
<path d="M4306 3081 c-4 -5 -2 -12 3 -15 5 -4 12 -2 15 3 4 5 2 12 -3 15 -5 4
-12 2 -15 -3z"/>
<path d="M4376 3081 c-4 -5 -2 -12 3 -15 5 -4 12 -2 15 3 4 5 2 12 -3 15 -5 4
-12 2 -15 -3z"/>
<path d="M1700 3050 c-41 -6 -39 -7 28 -8 47 -1 71 2 67 8 -7 11 -25 11 -95 0z"/>
<path d="M1086 3041 c-49 -6 -78 -31 -36 -31 12 0 18 5 15 10 -3 6 1 10 9 10
9 0 16 -4 16 -10 0 -16 68 -12 77 4 5 9 29 16 63 19 44 3 39 3 -20 4 -41 0
-97 -3 -124 -6z"/>
<path d="M1320 3030 c0 -5 15 -10 34 -10 19 0 38 5 41 10 4 6 -10 10 -34 10
-23 0 -41 -4 -41 -10z"/>
<path d="M3726 3022 c-3 -6 -1 -14 5 -17 15 -10 25 3 12 16 -7 7 -13 7 -17 1z"/>
<path d="M3800 3010 c0 -5 5 -10 10 -10 6 0 10 5 10 10 0 6 -4 10 -10 10 -5 0
-10 -4 -10 -10z"/>
<path d="M3870 3010 c0 -5 5 -10 10 -10 6 0 10 5 10 10 0 6 -4 10 -10 10 -5 0
-10 -4 -10 -10z"/>
<path d="M3950 3010 c0 -5 5 -10 10 -10 6 0 10 5 10 10 0 6 -4 10 -10 10 -5 0
-10 -4 -10 -10z"/>
<path d="M4003 3000 c-8 -12 -9 -21 -3 -25 6 -4 8 -11 5 -16 -3 -5 1 -6 9 -3
12 5 13 11 5 25 -6 13 -6 19 1 19 5 0 10 5 10 10 0 16 -14 11 -27 -10z"/>
<path d="M4090 3010 c0 -5 5 -10 10 -10 6 0 10 5 10 10 0 6 -4 10 -10 10 -5 0
-10 -4 -10 -10z"/>
<path d="M4160 3004 c0 -8 5 -12 10 -9 6 3 10 10 10 16 0 5 -4 9 -10 9 -5 0
-10 -7 -10 -16z"/>
<path d="M3711 2983 c-1 -24 14 -39 24 -23 3 5 2 10 -4 10 -5 0 -12 8 -14 18
-4 13 -5 12 -6 -5z"/>
<path d="M3950 2978 c0 -4 4 -8 9 -8 6 0 12 4 15 8 3 5 -1 9 -9 9 -8 0 -15 -4
-15 -9z"/>
<path d="M1040 2940 c0 -5 5 -10 10 -10 6 0 10 5 10 10 0 6 -4 10 -10 10 -5 0
-10 -4 -10 -10z"/>
</g>
</svg>
