<svg width="35" height="38" viewBox="0 0 35 38" fill="none" xmlns="http://www.w3.org/2000/svg">
<path d="M27.125 29.0182V24.1818H25.375V29.7091L29.1375 33.4227L30.3625 32.2136L27.125 29.0182ZM15.75 3.45455L5.38125 9.37045L15.75 15.2864L26.1187 9.37045L15.75 3.45455ZM0 24.1386V10.4068C0 9.77348 0.153417 9.19773 0.46025 8.67955C0.767083 8.16136 1.197 7.74394 1.75 7.42727L14 0.475C14.2917 0.331061 14.5763 0.215909 14.854 0.129546C15.1317 0.0431819 15.4303 0 15.75 0C16.0697 0 16.3759 0.0431819 16.6687 0.129546C16.9616 0.215909 17.2387 0.331061 17.5 0.475L29.75 7.42727C30.3042 7.74394 30.7347 8.16136 31.0415 8.67955C31.3483 9.19773 31.5012 9.77348 31.5 10.4068V17.2727H28V12.2636L15.7062 19.2591L3.5 12.2636V24.0955L14 30.0977V34.0705L1.75 27.1182C1.19583 26.8015 0.765916 26.3841 0.46025 25.8659C0.154583 25.3477 0.00116667 24.772 0 24.1386ZM26.25 38C23.8292 38 21.7659 37.1577 20.0602 35.473C18.3546 33.7883 17.5012 31.7519 17.5 29.3636C17.4988 26.9754 18.3522 24.9389 20.0602 23.2543C21.7682 21.5696 23.8315 20.7273 26.25 20.7273C28.6685 20.7273 30.7323 21.5696 32.4415 23.2543C34.1507 24.9389 35.0035 26.9754 35 29.3636C34.9965 31.7519 34.1431 33.7889 32.4397 35.4747C30.7364 37.1605 28.6732 38.0023 26.25 38Z" fill="white"/>
</svg>
