<svg width="35" height="35" viewBox="0 0 35 35" fill="none" xmlns="http://www.w3.org/2000/svg">
<path d="M19.25 24.5021H8.75001C8.28588 24.5021 7.84076 24.6864 7.51257 25.0145C7.18439 25.3427 7.00001 25.7877 7.00001 26.2517C7.00001 26.7158 7.18439 27.1608 7.51257 27.4889C7.84076 27.8171 8.28588 28.0014 8.75001 28.0014H19.25C19.7141 28.0014 20.1593 27.8171 20.4874 27.4889C20.8156 27.1608 21 26.7158 21 26.2517C21 25.7877 20.8156 25.3427 20.4874 25.0145C20.1593 24.6864 19.7141 24.5021 19.25 24.5021ZM12.25 14.0042H15.75C16.2141 14.0042 16.6593 13.8198 16.9874 13.4917C17.3156 13.1636 17.5 12.7186 17.5 12.2545C17.5 11.7905 17.3156 11.3455 16.9874 11.0173C16.6593 10.6892 16.2141 10.5049 15.75 10.5049H12.25C11.7859 10.5049 11.3408 10.6892 11.0126 11.0173C10.6844 11.3455 10.5 11.7905 10.5 12.2545C10.5 12.7186 10.6844 13.1636 11.0126 13.4917C11.3408 13.8198 11.7859 14.0042 12.25 14.0042ZM33.25 17.5035H28V1.75661C28.0012 1.4483 27.9209 1.14514 27.7673 0.877836C27.6136 0.610529 27.3921 0.388561 27.125 0.234409C26.859 0.080845 26.5572 0 26.25 0C25.9428 0 25.641 0.080845 25.375 0.234409L20.125 3.24381L14.875 0.234409C14.609 0.080845 14.3072 0 14 0C13.6928 0 13.391 0.080845 13.125 0.234409L7.87501 3.24381L2.62501 0.234409C2.35898 0.080845 2.0572 0 1.75001 0C1.44282 0 1.14105 0.080845 0.875013 0.234409C0.607956 0.388561 0.386381 0.610529 0.232726 0.877836C0.0790698 1.14514 -0.00121045 1.4483 1.3795e-05 1.75661V29.751C1.3795e-05 31.1432 0.553137 32.4782 1.5377 33.4626C2.52227 34.447 3.85763 35 5.25001 35H29.75C31.1424 35 32.4777 34.447 33.4623 33.4626C34.4469 32.4782 35 31.1432 35 29.751V19.2531C35 18.7891 34.8156 18.3441 34.4874 18.0159C34.1592 17.6878 33.7141 17.5035 33.25 17.5035ZM5.25001 31.5007C4.78588 31.5007 4.34076 31.3164 4.01258 30.9882C3.68439 30.6601 3.50001 30.2151 3.50001 29.751V4.7835L7.00001 6.77811C7.2701 6.91915 7.5703 6.99281 7.87501 6.99281C8.17972 6.99281 8.47992 6.91915 8.75001 6.77811L14 3.76871L19.25 6.77811C19.5201 6.91915 19.8203 6.99281 20.125 6.99281C20.4297 6.99281 20.7299 6.91915 21 6.77811L24.5 4.7835V29.751C24.5047 30.3479 24.6113 30.9396 24.815 31.5007H5.25001ZM31.5 29.751C31.5 30.2151 31.3156 30.6601 30.9874 30.9882C30.6593 31.3164 30.2141 31.5007 29.75 31.5007C29.2859 31.5007 28.8408 31.3164 28.5126 30.9882C28.1844 30.6601 28 30.2151 28 29.751V21.0028H31.5V29.751ZM19.25 17.5035H8.75001C8.28588 17.5035 7.84076 17.6878 7.51257 18.0159C7.18439 18.3441 7.00001 18.7891 7.00001 19.2531C7.00001 19.7172 7.18439 20.1622 7.51257 20.4903C7.84076 20.8184 8.28588 21.0028 8.75001 21.0028H19.25C19.7141 21.0028 20.1593 20.8184 20.4874 20.4903C20.8156 20.1622 21 19.7172 21 19.2531C21 18.7891 20.8156 18.3441 20.4874 18.0159C20.1593 17.6878 19.7141 17.5035 19.25 17.5035Z" fill="white"/>
</svg>
