<svg width="18" height="22" viewBox="0 0 18 22" fill="none" xmlns="http://www.w3.org/2000/svg">
<path fill-rule="evenodd" clip-rule="evenodd" d="M4.5 5.5V4.4C4.5 3.23305 4.97411 2.11389 5.81802 1.28873C6.66193 0.46357 7.80653 0 9 0C10.1935 0 11.3381 0.46357 12.182 1.28873C13.0259 2.11389 13.5 3.23305 13.5 4.4V5.5H16.875C17.496 5.5 18 5.9939 18 6.6077V19.8088C18 21.0188 16.9931 22 15.7568 22H2.24325C1.64869 22 1.07845 21.7692 0.657828 21.3583C0.237201 20.9475 0.000596346 20.3901 0 19.8088V6.6088C0 5.995 0.500625 5.5 1.125 5.5H4.5ZM5.85 5.5H12.15V4.4C12.15 3.58313 11.8181 2.79972 11.2274 2.22211C10.6366 1.6445 9.83543 1.32 9 1.32C8.16457 1.32 7.36335 1.6445 6.77261 2.22211C6.18187 2.79972 5.85 3.58313 5.85 4.4V5.5ZM4.5 6.82H1.35V19.8088C1.35 20.2884 1.7505 20.68 2.24325 20.68H15.7568C15.9933 20.68 16.2201 20.5883 16.3876 20.425C16.555 20.2616 16.6494 20.0401 16.65 19.8088V6.82H13.5V9.9H12.15V6.82H5.85V9.9H4.5V6.82Z" fill="black"/>
</svg>
