<svg width="25" height="25" viewBox="0 0 25 25" fill="none" xmlns="http://www.w3.org/2000/svg">
<path d="M18.8473 23.6113H6.15284C5.88562 23.605 5.62225 23.5461 5.3778 23.438C5.13334 23.3299 4.91258 23.1746 4.72814 22.9812C4.5437 22.7877 4.39918 22.5598 4.30286 22.3104C4.20653 22.0611 4.16027 21.7952 4.16673 21.528V7.79883H5.55562V21.528C5.54899 21.6129 5.5592 21.6982 5.58567 21.7791C5.61213 21.86 5.65433 21.9349 5.70983 21.9994C5.76533 22.0639 5.83304 22.1169 5.90907 22.1551C5.9851 22.1934 6.06795 22.2163 6.15284 22.2224H18.8473C18.9322 22.2163 19.015 22.1934 19.0911 22.1551C19.1671 22.1169 19.2348 22.0639 19.2903 21.9994C19.3458 21.9349 19.388 21.86 19.4145 21.7791C19.4409 21.6982 19.4511 21.6129 19.4445 21.528V7.79883H20.8334V21.528C20.8399 21.7952 20.7936 22.0611 20.6973 22.3104C20.6009 22.5598 20.4564 22.7877 20.272 22.9812C20.0875 23.1746 19.8668 23.3299 19.6223 23.438C19.3779 23.5461 19.1145 23.605 18.8473 23.6113Z" fill="black"/>
<path d="M21.375 6.24973H3.47222C3.28804 6.24973 3.1114 6.17656 2.98117 6.04633C2.85094 5.9161 2.77777 5.73946 2.77777 5.55528C2.77777 5.37111 2.85094 5.19447 2.98117 5.06424C3.1114 4.934 3.28804 4.86084 3.47222 4.86084H21.375C21.5592 4.86084 21.7358 4.934 21.866 5.06424C21.9963 5.19447 22.0694 5.37111 22.0694 5.55528C22.0694 5.73946 21.9963 5.9161 21.866 6.04633C21.7358 6.17656 21.5592 6.24973 21.375 6.24973Z" fill="black"/>
<path d="M14.5834 9.02783H15.9723V19.4445H14.5834V9.02783Z" fill="black"/>
<path d="M9.02777 9.02783H10.4167V19.4445H9.02777V9.02783Z" fill="black"/>
<path d="M15.9722 4.06972H14.6528V2.77805H10.3472V4.06972H9.02777V2.77805C9.02733 2.42141 9.16408 2.07828 9.40972 1.81972C9.65535 1.56116 9.99103 1.40699 10.3472 1.38916H14.6528C15.009 1.40699 15.3446 1.56116 15.5903 1.81972C15.8359 2.07828 15.9727 2.42141 15.9722 2.77805V4.06972Z" fill="black"/>
</svg>
