<svg width="12" height="13" viewBox="0 0 12 13" fill="none" xmlns="http://www.w3.org/2000/svg">
<path d="M11.5 2.25H8.75V1.5C8.75 1.16848 8.6183 0.850537 8.38388 0.616117C8.14946 0.381696 7.83152 0.25 7.5 0.25H4.5C4.16848 0.25 3.85054 0.381696 3.61612 0.616117C3.3817 0.850537 3.25 1.16848 3.25 1.5V2.25H0.5C0.433696 2.25 0.370107 2.27634 0.323223 2.32322C0.276339 2.37011 0.25 2.4337 0.25 2.5C0.25 2.5663 0.276339 2.62989 0.323223 2.67678C0.370107 2.72366 0.433696 2.75 0.5 2.75H1.25V12C1.25 12.1989 1.32902 12.3897 1.46967 12.5303C1.61032 12.671 1.80109 12.75 2 12.75H10C10.1989 12.75 10.3897 12.671 10.5303 12.5303C10.671 12.3897 10.75 12.1989 10.75 12V2.75H11.5C11.5663 2.75 11.6299 2.72366 11.6768 2.67678C11.7237 2.62989 11.75 2.5663 11.75 2.5C11.75 2.4337 11.7237 2.37011 11.6768 2.32322C11.6299 2.27634 11.5663 2.25 11.5 2.25ZM3.75 1.5C3.75 1.30109 3.82902 1.11032 3.96967 0.96967C4.11032 0.829018 4.30109 0.75 4.5 0.75H7.5C7.69891 0.75 7.88968 0.829018 8.03033 0.96967C8.17098 1.11032 8.25 1.30109 8.25 1.5V2.25H3.75V1.5ZM10.25 12C10.25 12.0663 10.2237 12.1299 10.1768 12.1768C10.1299 12.2237 10.0663 12.25 10 12.25H2C1.9337 12.25 1.87011 12.2237 1.82322 12.1768C1.77634 12.1299 1.75 12.0663 1.75 12V2.75H10.25V12ZM4.75 5.5V9.5C4.75 9.5663 4.72366 9.62989 4.67678 9.67678C4.62989 9.72366 4.5663 9.75 4.5 9.75C4.4337 9.75 4.37011 9.72366 4.32322 9.67678C4.27634 9.62989 4.25 9.5663 4.25 9.5V5.5C4.25 5.4337 4.27634 5.37011 4.32322 5.32322C4.37011 5.27634 4.4337 5.25 4.5 5.25C4.5663 5.25 4.62989 5.27634 4.67678 5.32322C4.72366 5.37011 4.75 5.4337 4.75 5.5ZM7.75 5.5V9.5C7.75 9.5663 7.72366 9.62989 7.67678 9.67678C7.62989 9.72366 7.5663 9.75 7.5 9.75C7.4337 9.75 7.37011 9.72366 7.32322 9.67678C7.27634 9.62989 7.25 9.5663 7.25 9.5V5.5C7.25 5.4337 7.27634 5.37011 7.32322 5.32322C7.37011 5.27634 7.4337 5.25 7.5 5.25C7.5663 5.25 7.62989 5.27634 7.67678 5.32322C7.72366 5.37011 7.75 5.4337 7.75 5.5Z" fill="black"/>
</svg>
