<svg width="20" height="18" viewBox="0 0 20 18" fill="none" xmlns="http://www.w3.org/2000/svg">
<path fill-rule="evenodd" clip-rule="evenodd" d="M19.9801 1.82822C20.0235 1.55074 19.9955 1.26608 19.899 1.00389C19.8025 0.741697 19.641 0.511573 19.4314 0.337493C19.2217 0.163414 18.9716 0.0517488 18.7071 0.0141321C18.4426 -0.0234846 18.1733 0.0143236 17.9274 0.123618L0.912456 7.67167C-0.273615 8.19793 -0.334311 10.0053 0.912456 10.5504C2.14717 11.0924 3.39969 11.5882 4.66768 12.037C5.82987 12.4416 7.09754 12.8159 8.11346 12.9218C8.39107 13.2719 8.74032 13.6095 9.09654 13.9177C9.64082 14.3894 10.2955 14.8748 10.9722 15.3403C12.3274 16.2733 13.8309 17.1654 14.8438 17.7462C16.0548 18.4381 17.5045 17.6414 17.7214 16.2502L19.9801 1.82822ZM2.81992 9.10055L17.8687 2.42472L15.7612 15.8854C14.7672 15.3162 13.3354 14.4639 12.0597 13.5854C11.4718 13.1876 10.9042 12.7576 10.3592 12.2969C10.2136 12.1716 10.0722 12.0408 9.93535 11.9049L13.8766 7.75344C14.0634 7.55686 14.1683 7.2902 14.1684 7.01211C14.1685 6.73401 14.0637 6.46727 13.8771 6.27056C13.6906 6.07385 13.4375 5.96328 13.1735 5.96318C12.9096 5.96309 12.6564 6.07346 12.4697 6.27004L8.15425 10.8167C7.4239 10.7181 6.40699 10.433 5.29057 10.0451C4.45944 9.75334 3.63592 9.43802 2.82092 9.0995L2.81992 9.10055Z" fill="#585858"/>
</svg>
