<svg width="23" height="20" viewBox="0 0 23 20" fill="none" xmlns="http://www.w3.org/2000/svg">
<path d="M7.3 6.17227H15.7M7.3 9.27564H15.7M18.85 14.4479H16.1987C16.0422 14.448 15.8877 14.483 15.7468 14.5502C15.6059 14.6173 15.4822 14.715 15.385 14.8358L12.3137 18.6116C12.2154 18.7328 12.0906 18.8306 11.9486 18.8979C11.8067 18.9651 11.6512 19 11.4937 19C11.3362 19 11.1807 18.9651 11.0388 18.8979C10.8968 18.8306 10.772 18.7328 10.6736 18.6116L7.6024 14.8358C7.50505 14.7148 7.38119 14.6171 7.2401 14.5499C7.099 14.4828 6.94431 14.4479 6.7876 14.4479H4.15C2.4049 14.4479 1 13.0638 1 11.3445V4.10336C1 2.3841 2.4049 1 4.15 1H18.85C20.5961 1 22 2.3841 22 4.10336V11.3445C22 13.0638 20.5961 14.4479 18.85 14.4479Z" stroke="#585858" stroke-width="1.5" stroke-miterlimit="10" stroke-linecap="round" stroke-linejoin="round"/>
</svg>
